<svg width="35" height="35" viewBox="0 0 35 35" fill="none" xmlns="http://www.w3.org/2000/svg">
<g filter="url(#filter0_i_66_3)">
<rect y="0.000488281" width="35" height="34.7961" rx="17.3981" fill="white"/>
</g>
<rect x="1" y="1.00049" width="33" height="32.7961" rx="16.3981" stroke="#E5E5E5" stroke-width="2"/>
<path d="M17.2929 22.6188C17.6834 23.0093 18.3166 23.0093 18.7071 22.6188L25.0711 16.2548C25.4616 15.8643 25.4616 15.2311 25.0711 14.8406C24.6805 14.4501 24.0474 14.4501 23.6569 14.8406L18 20.4974L12.3431 14.8406C11.9526 14.4501 11.3195 14.4501 10.9289 14.8406C10.5384 15.2311 10.5384 15.8643 10.9289 16.2548L17.2929 22.6188ZM17 20.9175V21.9117H19V20.9175H17Z" fill="#1D1D1D"/>
<defs>
<filter id="filter0_i_66_3" x="0" y="0.000488281" width="35" height="34.7959" filterUnits="userSpaceOnUse" color-interpolation-filters="sRGB">
<feFlood flood-opacity="0" result="BackgroundImageFix"/>
<feBlend mode="normal" in="SourceGraphic" in2="BackgroundImageFix" result="shape"/>
<feColorMatrix in="SourceAlpha" type="matrix" values="0 0 0 0 0 0 0 0 0 0 0 0 0 0 0 0 0 0 127 0" result="hardAlpha"/>
<feOffset/>
<feGaussianBlur stdDeviation="5"/>
<feComposite in2="hardAlpha" operator="arithmetic" k2="-1" k3="1"/>
<feColorMatrix type="matrix" values="0 0 0 0 0 0 0 0 0 0 0 0 0 0 0 0 0 0 0.1 0"/>
<feBlend mode="normal" in2="shape" result="effect1_innerShadow_66_3"/>
</filter>
</defs>
</svg>
